
<svg xmlns="http://www.w3.org/2000/svg" version="1.1" xmlns:xlink="http://www.w3.org/1999/xlink" preserveAspectRatio="none" x="0px" y="0px" width="512px" height="512px" viewBox="0 0 512 512">
<defs>
<g id="Layer0_0_FILL">
<path fill="#FEBD02" stroke="none" d="
M 496 26.6
Q 495.85859375 20.743359375 492.45 18.1 489.893359375 16.10859375 485.4 16
L 414.55 16.05
Q 404.95 16.85 398.75 23.05 387.35 34.45 395.3 42.4
L 416.95 64 416.4 63.5 248.25 228.25 147.4 228.25 145 256 297.8 256 447.1 94.2
Q 458.8125 105.909765625 467.5 114.6
L 469.6 116.7
Q 477.55 124.65 488.95 113.25 495.2 107 495.95 97.45
L 496 26.6 Z"/>

<path fill="#102545" stroke="none" d="
M 298.1 393.7
Q 280.9 376.05 256 376.05 231.1 376.05 213.45 393.7 195.8 411.35 195.8 436.25 195.8 461.15 213.45 478.35 231.1 496.05 256 496.05 280.9 496.05 298.1 478.35 315.8 461.15 315.8 436.25 315.8 411.35 298.1 393.7
M 136 256.05
Q 136 231.1 118.35 213.45 100.7 195.8 75.8 195.8 50.9 195.8 33.65 213.45 16 231.1 16 256.05 16 280.95 33.65 298.15 50.9 315.8 75.8 315.8 100.7 315.8 118.35 298.15 136 280.95 136 256.05
M 393.65 213.45
Q 376 231.1 376 256.05 376 280.95 393.65 298.15 411.35 315.8 436.25 315.8 461.15 315.8 478.35 298.15 496 280.95 496 256.05 496 231.1 478.35 213.45 461.15 195.8 436.25 195.8 411.35 195.8 393.65 213.45 Z"/>
</g>

<g id="Layer0_1_FILL">
<path fill="#000000" stroke="none" d="
M 115.2 140.45
L 72.8 140.45 60.05 285.55 102.5 285.55 115.2 140.45 Z"/>
</g>

<g id="Layer0_2_FILL">
<path fill="#000000" stroke="none" d="
M 124.15 37.75
L 81.75 37.75 76.15 101.4 118.55 101.4 124.15 37.75 Z"/>
</g>

<g id="Layer0_3_FILL">
<path fill="#000000" stroke="none" d="
M -727.3 287.25
L -741.7 452.2 -625.1 287.25 -727.3 287.25 Z"/>
</g>

<g id="Layer0_4_FILL">
<path fill="#4D6EA3" fill-opacity="0.4980392156862745" stroke="none" d="
M 6.6 0
Q 3.85 0 1.95 1.95 0 3.9 0 6.65 0 9.4 1.95 11.3 3.85 13.25 6.6 13.25 9.35 13.25 11.3 11.3 13.25 9.4 13.25 6.65 13.25 3.9 11.3 1.95 9.35 0 6.6 0 Z"/>
</g>

<g id="Layer0_5_FILL">
<path fill="#4D6EA3" fill-opacity="0.4980392156862745" stroke="none" d="
M 6.65 0
Q 3.9 0 1.95 1.95 0 3.9 0 6.65 0 9.4 1.95 11.3 3.9 13.25 6.65 13.25 9.4 13.25 11.3 11.3 13.25 9.4 13.25 6.65 13.25 3.9 11.3 1.95 9.4 0 6.65 0 Z"/>
</g>

<g id="Layer0_6_FILL">
<path fill="#4D6EA3" fill-opacity="0.4980392156862745" stroke="none" d="
M 6.6 0
Q 3.85 0 1.95 1.95 0 3.85 0 6.6 0 9.35 1.95 11.3 3.85 13.25 6.6 13.25 9.35 13.25 11.3 11.3 13.25 9.35 13.25 6.6 13.25 3.85 11.3 1.95 9.35 0 6.6 0 Z"/>
</g>

<g id="Layer0_7_FILL">
<path fill="#4D6EA3" fill-opacity="0.4980392156862745" stroke="none" d="
M 6.65 0
Q 3.9 0 1.95 1.95 0 3.85 0 6.6 0 9.35 1.95 11.3 3.9 13.25 6.65 13.25 9.4 13.25 11.3 11.3 13.25 9.35 13.25 6.6 13.25 3.85 11.3 1.95 9.4 0 6.65 0 Z"/>
</g>
</defs>

<g transform="matrix( 1, 0, 0, 1, 0,0) ">
<use xlink:href="#Layer0_0_FILL"/>
</g>

<g transform="matrix( 0.6911773681640625, 0, 0, 0.691192626953125, 145,144.25) ">
<use xlink:href="#Layer0_1_FILL"/>
</g>

<g transform="matrix( 0.6911773681640625, 0, 0, 0.691192626953125, 145,144.25) ">
<use xlink:href="#Layer0_2_FILL"/>
</g>

<g transform="matrix( 0.677154541015625, 0, 0, 0.6771697998046875, 790.3,61.55) ">
<use xlink:href="#Layer0_3_FILL"/>
</g>

<g transform="matrix( 9.056640625, 0, 0, 9.056640625, 16,376) ">
<use xlink:href="#Layer0_4_FILL"/>
</g>

<g transform="matrix( 9.056640625, 0, 0, 9.056640625, 376,376) ">
<use xlink:href="#Layer0_5_FILL"/>
</g>

<g transform="matrix( 9.056640625, 0, 0, 9.056640625, 16,16) ">
<use xlink:href="#Layer0_6_FILL"/>
</g>

<g transform="matrix( 9.056640625, 0, 0, 9.056640625, 195.75,16) ">
<use xlink:href="#Layer0_7_FILL"/>
</g>
</svg>
