
<svg xmlns="http://www.w3.org/2000/svg" version="1.1" xmlns:xlink="http://www.w3.org/1999/xlink" preserveAspectRatio="none" x="0px" y="0px" width="512px" height="512px" viewBox="0 0 512 512">
<defs>
<g id="Layer1_0_FILL">
<path fill="#FEBD02" stroke="none" d="
M 496 26.6
Q 495.85859375 20.743359375 492.45 18.1 489.893359375 16.10859375 485.4 16
L 414.55 16.05
Q 404.95 16.85 398.75 23.05 387.35 34.45 395.3 42.4
L 416.95 64 416.4 63.5 248.25 228.25 147.4 228.25 145 256 297.8 256 447.1 94.2
Q 458.8125 105.909765625 467.5 114.6
L 469.6 116.7
Q 477.55 124.65 488.95 113.25 495.2 107 495.95 97.45
L 496 26.6 Z"/>
</g>

<g id="Layer1_1_FILL">
<path fill="#000000" stroke="none" d="
M 115.2 140.45
L 72.8 140.45 60.05 285.55 102.5 285.55 115.2 140.45 Z"/>
</g>

<g id="Layer1_2_FILL">
<path fill="#000000" stroke="none" d="
M 124.15 37.75
L 81.75 37.75 76.15 101.4 118.55 101.4 124.15 37.75 Z"/>
</g>

<g id="Layer1_3_FILL">
<path fill="#000000" stroke="none" d="
M -727.3 287.25
L -741.7 452.2 -625.1 287.25 -727.3 287.25 Z"/>
</g>

<g id="Layer1_4_FILL">
<path fill="#4D6EA3" fill-opacity="0.4980392156862745" stroke="none" d="
M 6.6 0
Q 3.85 0 1.95 1.95 0 3.9 0 6.65 0 9.4 1.95 11.3 3.85 13.25 6.6 13.25 9.35 13.25 11.3 11.3 13.25 9.4 13.25 6.65 13.25 3.9 11.3 1.95 9.35 0 6.6 0 Z"/>
</g>

<g id="Layer1_5_FILL">
<path fill="#4D6EA3" fill-opacity="0.4980392156862745" stroke="none" d="
M 6.65 0
Q 3.9 0 1.95 1.95 0 3.9 0 6.65 0 9.4 1.95 11.3 3.9 13.25 6.65 13.25 9.4 13.25 11.3 11.3 13.25 9.4 13.25 6.65 13.25 3.9 11.3 1.95 9.4 0 6.65 0 Z"/>
</g>

<g id="Layer1_6_FILL">
<path fill="#4D6EA3" fill-opacity="0.4980392156862745" stroke="none" d="
M 6.65 0
Q 3.9 0 1.95 1.95 0 3.85 0 6.6 0 9.35 1.95 11.3 3.9 13.25 6.65 13.25 9.4 13.25 11.3 11.3 13.25 9.35 13.25 6.6 13.25 3.85 11.3 1.95 9.4 0 6.65 0 Z"/>
</g>

<g id="Symbol_3_0_Layer0_0_FILL">
<path fill="#4D6EA3" fill-opacity="0.4980392156862745" stroke="none" d="
M 60 -0.25
Q 60 -25.15 42.35 -42.35 24.7 -60 -0.25 -60 -25.15 -60 -42.35 -42.35 -60 -25.15 -60 -0.25 -60 24.7 -42.35 42.35 -25.15 60 -0.25 60 24.7 60 42.35 42.35 60 24.7 60 -0.25
M 5.7 -37.1
Q 17.55 -35.4 26.45 -26.45 37.5 -15.45 37.5 0.15 37.5 15.7 26.45 26.45 15.45 37.5 -0.1 37.5 -15.65 37.5 -26.45 26.45 -35.4 17.75 -37.1 5.95 -37.3 4.6 -37.4 3.25 -37.45 1.825 -37.5 0.4 -37.5 0.3 -37.5 0.2
L -37.4 -2.4
Q -36.6 -16.35 -26.45 -26.45 -15.65 -37.5 -0.1 -37.5 2.85 -37.5 5.7 -37.1 Z"/>

<path fill="#102545" stroke="none" d="
M 26.45 -26.45
Q 17.55 -35.4 5.7 -37.1 2.85 -37.5 -0.1 -37.5 -15.65 -37.5 -26.45 -26.45 -36.6 -16.35 -37.4 -2.4
L -37.5 0.2
Q -37.5 0.3 -37.5 0.4 -37.45 1.825 -37.4 3.25 -37.3 4.6 -37.1 5.95 -35.4 17.75 -26.45 26.45 -15.65 37.5 -0.1 37.5 15.45 37.5 26.45 26.45 37.5 15.7 37.5 0.15 37.5 -15.45 26.45 -26.45 Z"/>
</g>
</defs>

<g transform="matrix( 1, 0, 0, 1, 0,0) ">
<use xlink:href="#Layer1_0_FILL"/>
</g>

<g transform="matrix( 0.691162109375, 0, 0, 0.691192626953125, 145,144.25) ">
<use xlink:href="#Layer1_1_FILL"/>
</g>

<g transform="matrix( 0.691162109375, 0, 0, 0.691192626953125, 145,144.25) ">
<use xlink:href="#Layer1_2_FILL"/>
</g>

<g transform="matrix( 0.677154541015625, 0, 0, 0.6771697998046875, 790.3,61.55) ">
<use xlink:href="#Layer1_3_FILL"/>
</g>

<g transform="matrix( 9.056640625, 0, 0, 9.056640625, 16,376) ">
<use xlink:href="#Layer1_4_FILL"/>
</g>

<g transform="matrix( 9.056640625, 0, 0, 9.056640625, 376,376) ">
<use xlink:href="#Layer1_5_FILL"/>
</g>

<g transform="matrix( 9.056640625, 0, 0, 9.056640625, 195.75,16) ">
<use xlink:href="#Layer1_6_FILL"/>
</g>

<g transform="matrix( 1, 0, 0, 1, 76,76) ">
<g transform="matrix( 1, 0, 0, 1, 0,0) ">
<use xlink:href="#Symbol_3_0_Layer0_0_FILL"/>
</g>
</g>

<g transform="matrix( 1, 0, 0, 1, 76,255.8) ">
<g transform="matrix( 1, 0, 0, 1, 0,0) ">
<use xlink:href="#Symbol_3_0_Layer0_0_FILL"/>
</g>
</g>

<g transform="matrix( 1, 0, 0, 1, 255.75,436.05) ">
<g transform="matrix( 1, 0, 0, 1, 0,0) ">
<use xlink:href="#Symbol_3_0_Layer0_0_FILL"/>
</g>
</g>

<g transform="matrix( 1, 0, 0, 1, 436,255.8) ">
<g transform="matrix( 1, 0, 0, 1, 0,0) ">
<use xlink:href="#Symbol_3_0_Layer0_0_FILL"/>
</g>
</g>
</svg>
