<svg xmlns="http://www.w3.org/2000/svg" version="1.1" xmlns:xlink="http://www.w3.org/1999/xlink" preserveAspectRatio="none" x="0px" y="0px" width="512px" height="512px" viewBox="0 0 512 512"><defs><g id="Layer1_0_MEMBER_0_FILL"><path fill="#000000" stroke="none" d="M 115.2 140.45L 72.8 140.45 60.05 285.55 102.5 285.55 115.2 140.45 Z"/></g><g id="Layer1_0_MEMBER_1_FILL"><path fill="#000000" stroke="none" d="M 124.15 37.75L 81.75 37.75 76.15 101.4 118.55 101.4 124.15 37.75 Z"/></g><g id="Layer1_0_MEMBER_2_FILL"><path fill="#FEBD02" stroke="none" d="M 221.05 161.7L 235.2 0 149.4 121.5 3.5 121.5 0 161.7 221.05 161.7 Z"/></g><g id="Layer1_0_MEMBER_3_FILL"><path fill="#000000" stroke="none" d="M -727.3 287.25L -741.7 452.2 -625.15 287.25 -727.3 287.25 Z"/></g><g id="Layer0_0_FILL"><path fill="#102545" stroke="none" d="M 393.65 213.45Q 376 231.1 376 256.05 376 280.95 393.65 298.15 411.35 315.8 436.25 315.8 461.15 315.8 478.35 298.15 496 280.95 496 256.05 496 231.1 478.35 213.45 461.15 195.8 436.25 195.8 411.35 195.8 393.65 213.45M 298.1 393.7Q 280.9 376.05 256 376.05 231.1 376.05 213.45 393.7 195.8 411.35 195.8 436.25 195.8 461.15 213.45 478.35 231.1 496.05 256 496.05 280.9 496.05 298.1 478.35 315.8 461.15 315.8 436.25 315.8 411.35 298.1 393.7M 136 256.05Q 136 231.1 118.35 213.45 100.7 195.8 75.8 195.8 50.9 195.8 33.65 213.45 16 231.1 16 256.05 16 280.95 33.65 298.15 50.9 315.8 75.8 315.8 100.7 315.8 118.35 298.15 136 280.95 136 256.05 Z"/></g><g id="Layer0_1_FILL"><path fill="#4D6EA3" fill-opacity="0.4980392156862745" stroke="none" d="M 13.25 6.65Q 13.25 3.9 11.3 1.95 9.35 0 6.6 0 3.85 0 1.95 1.95 0 3.9 0 6.65 0 9.4 1.95 11.3 3.85 13.25 6.6 13.25 9.35 13.25 11.3 11.3 13.25 9.4 13.25 6.65 Z"/></g><g id="Layer0_2_FILL"><path fill="#4D6EA3" fill-opacity="0.4980392156862745" stroke="none" d="M 13.25 6.65Q 13.25 3.9 11.3 1.95 9.4 0 6.65 0 3.9 0 1.95 1.95 0 3.9 0 6.65 0 9.4 1.95 11.3 3.9 13.25 6.65 13.25 9.4 13.25 11.3 11.3 13.25 9.4 13.25 6.65 Z"/></g><g id="Layer0_3_FILL"><path fill="#4D6EA3" fill-opacity="0.4980392156862745" stroke="none" d="M 13.25 6.6Q 13.25 3.85 11.3 1.95 9.35 0 6.6 0 3.85 0 1.95 1.95 0 3.85 0 6.6 0 9.35 1.95 11.3 3.85 13.25 6.6 13.25 9.35 13.25 11.3 11.3 13.25 9.35 13.25 6.6 Z"/></g><g id="Layer0_4_FILL"><path fill="#4D6EA3" fill-opacity="0.4980392156862745" stroke="none" d="M 13.25 6.6Q 13.25 3.85 11.3 1.95 9.4 0 6.65 0 3.9 0 1.95 1.95 0 3.85 0 6.6 0 9.35 1.95 11.3 3.9 13.25 6.65 13.25 9.4 13.25 11.3 11.3 13.25 9.35 13.25 6.6 Z"/></g><g id="Layer0_5_FILL"><path fill="#FFC300" stroke="none" d="M 104 34Q 99.9 29 95 29 86 29 86 38L 86 60 32 60Q 24 60 24 68L 24 92Q 24 100 32 100L 86 100 86 122Q 86 131 95 131 99.95 131 104 126L 132 86Q 136 80 132 74L 104 34 Z"/></g></defs><g transform="matrix( 0.691192626953125, 0, 0, 0.6912078857421875, 145,144.25) "><use xlink:href="#Layer1_0_MEMBER_0_FILL"/></g><g transform="matrix( 0.691192626953125, 0, 0, 0.6912078857421875, 145,144.25) "><use xlink:href="#Layer1_0_MEMBER_1_FILL"/></g><g transform="matrix( 0.691192626953125, 0, 0, 0.6912078857421875, 145,144.25) "><use xlink:href="#Layer1_0_MEMBER_2_FILL"/></g><g transform="matrix( 0.6771697998046875, 0, 0, 0.67718505859375, 790.3,61.55) "><use xlink:href="#Layer1_0_MEMBER_3_FILL"/></g><g transform="matrix( 1, 0, 0, 1, 0,0) "><use xlink:href="#Layer0_0_FILL"/></g><g transform="matrix( 9.056640625, 0, 0, 9.056640625, 16,376) "><use xlink:href="#Layer0_1_FILL"/></g><g transform="matrix( 9.056640625, 0, 0, 9.056640625, 376,376) "><use xlink:href="#Layer0_2_FILL"/></g><g transform="matrix( 9.056640625, 0, 0, 9.056640625, 16,16) "><use xlink:href="#Layer0_3_FILL"/></g><g transform="matrix( 9.056640625, 0, 0, 9.056640625, 195.75,16) "><use xlink:href="#Layer0_4_FILL"/></g><g transform="matrix( 1.2658538818359375, -1.265838623046875, 0.884368896484375, 0.8843994140625, 252.85,117.65) "><use xlink:href="#Layer0_5_FILL"/></g></svg>